<svg xmlns="http://www.w3.org/2000/svg" viewBox="0 0 256 256" role="img" aria-labelledby="title desc">
	<title id="title">UI Design SDLC persona</title>
	<desc id="desc">Original 2D UI design persona with a pastel palette, rainbow visor, stylus, and curve tablet.</desc>
	<defs>
		<linearGradient id="bg" x1="0" y1="0" x2="1" y2="1">
			<stop offset="0" stop-color="#d8fff0"/>
			<stop offset="1" stop-color="#cab8ff"/>
		</linearGradient>
		<linearGradient id="visor" x1="0" y1="0" x2="1" y2="0">
			<stop offset="0" stop-color="#ffe46d"/>
			<stop offset="0.4" stop-color="#ff73de"/>
			<stop offset="1" stop-color="#73e8ff"/>
		</linearGradient>
	</defs>
	<rect x="6" y="6" width="244" height="244" rx="30" fill="url(#bg)"/>
	<path d="M32 0v256M96 0v256M160 0v256M224 0v256M0 32h256M0 96h256M0 160h256M0 224h256" stroke="#d8dced" opacity=".42"/>
	<circle cx="128" cy="136" r="90" fill="#fff0fb" opacity=".28"/>
	<text x="128" y="33" text-anchor="middle" font-family="Segoe UI, Arial, sans-serif" font-size="18" font-weight="900" fill="#304153">UI DESIGN</text>
	<path d="M36 86l12 9M48 82l-10 14" stroke="#ff85bf" stroke-width="5" stroke-linecap="round"/>
	<path d="M60 74l12 16" stroke="#7a7cff" stroke-width="5" stroke-linecap="round"/>
	<path d="M189 72l13 9M198 66l7 18" stroke="#8d6cff" stroke-width="5" stroke-linecap="round"/>
	<circle cx="221" cy="84" r="10" fill="#ff72a9" opacity=".86"/>
	<g transform="translate(128 143)">
		<path d="M-58 15c0-43 27-80 58-80s58 37 58 80v30H-58Z" fill="#f2b9d6"/>
		<path d="M-24 -32l-18-24 26 11M24 -32l18-24-26 11" fill="#f6d5e7"/>
		<rect x="-52" y="-10" width="104" height="54" rx="27" fill="#e4f4ef" stroke="#74849c" stroke-width="4"/>
		<rect x="-40" y="0" width="80" height="24" rx="12" fill="url(#visor)" stroke="#74849c" stroke-width="4"/>
		<circle cx="-14" cy="12" r="3" fill="#28384d"/>
		<circle cx="14" cy="12" r="3" fill="#28384d"/>
		<path d="M-30 48h60v64c-18 11-42 11-60 0V48Z" fill="#84e2ef"/>
		<path d="M-34 58c-13 8-22 21-28 37M34 58c13 8 22 21 28 37" stroke="#8ca8be" stroke-width="8" stroke-linecap="round" fill="none"/>
	</g>
	<g transform="translate(64 171)">
		<path d="M0 -18l9 22" stroke="#34465d" stroke-width="6" stroke-linecap="round"/>
		<circle cx="-2" cy="-22" r="4" fill="#34465d"/>
	</g>
	<g transform="translate(204 176)">
		<rect x="-28" y="-31" width="56" height="62" rx="10" fill="#304459"/>
		<path d="M-18 18c10-18 24-26 36-24" stroke="#78deff" stroke-width="4" fill="none"/>
		<path d="M-18 8c9-10 22-16 36-14" stroke="#96a8ff" stroke-width="4" fill="none"/>
		<path d="M-18 26h36" stroke="#839aaf" stroke-width="4"/>
	</g>
</svg>