<svg xmlns="http://www.w3.org/2000/svg" viewBox="0 0 256 256" role="img" aria-labelledby="title desc">
	<title id="title">DevOps and Infra SDLC persona</title>
	<desc id="desc">Original 2D DevOps persona with bronze goggles, pipes, and utility-belt tooling.</desc>
	<defs>
		<linearGradient id="bg" x1="0" y1="0" x2="1" y2="1">
			<stop offset="0" stop-color="#efcfab"/>
			<stop offset="1" stop-color="#bb845e"/>
		</linearGradient>
		<linearGradient id="goggle" x1="0" y1="0" x2="1" y2="0">
			<stop offset="0" stop-color="#ffd77c"/>
			<stop offset="1" stop-color="#dc8d3d"/>
		</linearGradient>
	</defs>
	<rect x="6" y="6" width="244" height="244" rx="30" fill="url(#bg)"/>
	<path d="M32 0v256M96 0v256M160 0v256M224 0v256M0 32h256M0 96h256M0 160h256M0 224h256" stroke="#c29e7d" opacity=".42"/>
	<circle cx="128" cy="136" r="88" fill="#f5e2c7" opacity=".18"/>
	<text x="128" y="33" text-anchor="middle" font-family="Segoe UI, Arial, sans-serif" font-size="18" font-weight="900" fill="#4b3123">DEVOPS &amp; INFRA</text>
	<g stroke="#a37859" stroke-width="6" fill="none" opacity=".9">
		<path d="M16 64h48v18h40"/>
		<path d="M154 62h34v34h50"/>
		<path d="M38 140v40h58"/>
		<path d="M174 148h48v24"/>
	</g>
	<g transform="translate(128 146)">
		<path d="M-56 14c0-43 27-78 56-78s56 35 56 78v34H-56Z" fill="#6b4b39"/>
		<path d="M-23 -24l-16-24 20 10M23 -24l16-24-20 10" fill="#8a6045"/>
		<rect x="-38" y="-11" width="76" height="22" rx="11" fill="#604335"/>
		<circle cx="-18" cy="0" r="16" fill="url(#goggle)" stroke="#6f5040" stroke-width="4"/>
		<circle cx="18" cy="0" r="16" fill="url(#goggle)" stroke="#6f5040" stroke-width="4"/>
		<path d="M-2 0h4" stroke="#6f5040" stroke-width="4"/>
		<path d="M-33 21c8 9 21 12 33 12s25-3 33-12" fill="#d8b392"/>
		<path d="M-30 48h60v66c-18 10-42 10-60 0V48Z" fill="#7e573e"/>
		<path d="M-32 58c-13 8-22 20-28 36M32 58c13 8 22 20 28 36" stroke="#8e6a52" stroke-width="8" stroke-linecap="round" fill="none"/>
		<rect x="-22" y="65" width="14" height="18" rx="3" fill="#bf8046"/>
		<rect x="8" y="65" width="14" height="18" rx="3" fill="#bf8046"/>
	</g>
	<g fill="#9a724f">
		<circle cx="42" cy="195" r="15"/>
		<circle cx="42" cy="195" r="6" fill="#c39a75"/>
		<circle cx="214" cy="178" r="18"/>
		<circle cx="214" cy="178" r="7" fill="#c39a75"/>
	</g>
	<path d="M30 195h24M42 183v24M201 178h26M214 165v26" stroke="#8e694d" stroke-width="5" stroke-linecap="round"/>
</svg>