<svg xmlns="http://www.w3.org/2000/svg" viewBox="0 0 256 256" role="img" aria-labelledby="title desc">
  <title id="title">Front End SDLC persona</title>
  <desc id="desc">Original 2D front end engineer persona with a bright UI toolkit theme and rainbow visor.</desc>
  <defs>
    <linearGradient id="bg" x1="0" y1="0" x2="1" y2="1">
      <stop offset="0" stop-color="#f8fdff"/>
      <stop offset="1" stop-color="#bfe2ff"/>
    </linearGradient>
    <linearGradient id="visor" x1="0" y1="0" x2="1" y2="0">
      <stop offset="0" stop-color="#ffbd59"/>
      <stop offset="0.35" stop-color="#ff6adf"/>
      <stop offset="0.7" stop-color="#69e2ff"/>
      <stop offset="1" stop-color="#8bf39e"/>
    </linearGradient>
    <linearGradient id="hoodie" x1="0" y1="0" x2="1" y2="1">
      <stop offset="0" stop-color="#98d7ff"/>
      <stop offset="1" stop-color="#8f8dff"/>
    </linearGradient>
  </defs>
  <rect x="6" y="6" width="244" height="244" rx="30" fill="url(#bg)"/>
  <path d="M32 0v256M96 0v256M160 0v256M224 0v256M0 32h256M0 96h256M0 160h256M0 224h256" stroke="#d5e3ef" opacity=".65"/>
  <circle cx="128" cy="136" r="88" fill="#ffffff" opacity=".34"/>
  <text x="128" y="33" text-anchor="middle" font-family="Segoe UI, Arial, sans-serif" font-size="18" font-weight="900" fill="#223247">FRONT END</text>
  <g transform="translate(128 143)">
    <path d="M-60 20c0-43 27-80 60-80s60 37 60 80v24H-60Z" fill="#4c5f8c"/>
    <path d="M-24 -34l-18-22 28 10M24 -34l18-22-28 10" fill="#637ab0"/>
    <circle cx="-47" cy="-2" r="11" fill="#5b71a1"/>
    <circle cx="47" cy="-2" r="11" fill="#5b71a1"/>
    <rect x="-52" y="-10" width="104" height="56" rx="27" fill="#dce8f3" stroke="#65788d" stroke-width="4"/>
    <rect x="-40" y="0" width="80" height="24" rx="12" fill="url(#visor)" stroke="#65788d" stroke-width="4"/>
    <circle cx="-15" cy="12" r="3" fill="#223247"/>
    <circle cx="15" cy="12" r="3" fill="#223247"/>
    <path d="M-34 48h68v64c-19 10-49 10-68 0V48Z" fill="url(#hoodie)"/>
    <path d="M-18 58h36v38a7 7 0 0 1-7 7h-22a7 7 0 0 1-7-7V58Z" fill="#ffe19b" stroke="#61748a" stroke-width="3"/>
    <text x="0" y="81" text-anchor="middle" font-family="Segoe UI, Arial, sans-serif" font-size="12" font-weight="900" fill="#223247">FE</text>
    <path d="M-35 60c-14 7-24 20-30 36M35 60c14 7 24 20 30 36" stroke="#86b6dc" stroke-width="8" stroke-linecap="round" fill="none"/>
  </g>
  <g>
    <rect x="18" y="74" width="40" height="28" rx="9" fill="#5c84d6"/>
    <text x="38" y="92" text-anchor="middle" font-family="Consolas, monospace" font-size="13" font-weight="700" fill="#eff7ff">{ }</text>
    <rect x="192" y="76" width="32" height="32" rx="8" fill="#9bc0df"/>
    <path d="M200 84h16M200 90h16M200 96h16M208 78v24" stroke="#eff8ff" stroke-width="2"/>
    <rect x="22" y="152" width="40" height="66" rx="10" fill="#fff" stroke="#9fb6ca" stroke-width="2"/>
    <rect x="29" y="160" width="26" height="6" rx="3" fill="#8fd2ff"/>
    <rect x="29" y="171" width="18" height="5" rx="2.5" fill="#8ee0b3"/>
    <rect x="29" y="181" width="24" height="5" rx="2.5" fill="#ffb7cb"/>
    <circle cx="42" cy="206" r="3" fill="#9fb6ca"/>
    <rect x="184" y="150" width="42" height="68" rx="10" fill="#33455e"/>
    <circle cx="205" cy="181" r="13" fill="url(#visor)"/>
    <path d="M214 146l14 11-10 5z" fill="#25364c"/>
  </g>
</svg>